# xmcd
#
# Track frame offsets:
#	150
#	19597
#	33635
#	56100
#	79372
#	130055
#	155682
#	178852
#	204347
#	217447
#	242990
#	264082
#	282217
#	307370
#	314992
#
# Disc length: 4499
#
# Revision: 1
# Processed by: cddbd v1.5.1PL0 Copyright (c) Steve Scherf et al.
# Submitted via: dBpowerAMP V4.0
# Normalized: r0:TSWAP
#
DISCID=ef11910f
DTITLE=퓨전속으로 - in the FUSION
DYEAR=1900
DGENRE=
TTITLE0=Dave Grusin - 01 Tick Tock
TTITLE1=Chuck Mangione - 02 Children of Sanchez - Finale
TTITLE2=El Debarge - 03 Dindi
TTITLE3=Yellow Jacket - 04 The Dream
TTITLE4=The Crusaders - 05 Street Life
TTITLE5=The Rippingtons - 06 Garden of Babylon
TTITLE6=Tom Scott - 07 Morning Rays
TTITLE7=Eric Mariental - 08 Last Day of Summer
TTITLE8=George Benson - 09 Sunny
TTITLE9=Joe Sample - 10 Carmel
TTITLE10=Lee Ritenour - 11 Earth Run
TTITLE11=Spyro Gyra - 12 Best Friends
TTITLE12=Chris Botti - 13 Drive Time
TTITLE13=Chick Corea - 14 My Spanish Heart
TTITLE14=Dave Grusin/Lee Ritenour - 15 Early A.M Attitude
EXTD=
EXTT0=
EXTT1=
EXTT2=
EXTT3=
EXTT4=
EXTT5=
EXTT6=
EXTT7=
EXTT8=
EXTT9=
EXTT10=
EXTT11=
EXTT12=
EXTT13=
EXTT14=
PLAYORDER=
